<svg id="Layer_1" data-name="Layer 1" xmlns="http://www.w3.org/2000/svg" viewBox="0 0 1350 1080"><defs><style>.cls-1{fill:#fd4b90;}.cls-2{fill:#81dfc0;}</style></defs><title>Logotipo_Icone</title><path class="cls-1" d="M891.59,752.11a358.65,358.65,0,0,0,29.12-38.05c.67-1,1.33-2,2-3l.57-.9q44.36-67.9,47.9-141c.19-2.12.44-4.23.59-6.37a325.76,325.76,0,0,0-.64-53q-3.27-59-34.7-117.37A319.4,319.4,0,0,0,910,350.13l0-.05c-1.27-1.73-2.52-3.47-3.83-5.17-4.76-6.44-9.7-12.88-15-19.31-7.2-7.3-14.47-14.14-21.77-20.68a320.11,320.11,0,0,0-28.74-23.58Q759,220.52,668.46,220.45H653.93l-.92,0-.75,0H631.35a326.07,326.07,0,0,0-99.48,21.65C519.33,247,474.65,265.52,429.3,307a345.81,345.81,0,0,0-32.69,34.37c-15.21,16.45-21.81,31.22-25,41.07-.36,1.12-.82,2.42-1.26,4.27-4.52,19.09-.16,43.76-.16,43.76,1.16,4.84,7.22,27.91,28.6,39.63,23.54,12.89,56.06,6.77,78.27-16.55,17.17-19.69,29.49-34.35,38-44.7,0,0,24.36-29.46,44.46-40.64,1.26-.7,2.54-1.39,2.54-1.39,1.17-.64,2.36-1.24,3.54-1.86a195.23,195.23,0,0,1,98.49-20.24c3.27.18,6.46.65,9.69,1q31.42,4.39,66.76,21.09,105.15,61.85,105.15,169.05v8.25a179.18,179.18,0,0,1-18.56,80.4q-62.88,109.28-167,109.27H643.72q-56.7,0-109.27-39.17-29-24.2-47.2-51.65c-12.6-21.52-26.73-56.77-16.15-96.39,6.9-25.83,21.63-43.44,31.17-53h0a151,151,0,0,0-42,13.4,155.35,155.35,0,0,0-23.19,14.07c-.82.53-1.64,1-2.46,1.5l.12.1c-21,14-41.78,34.16-53.85,62.91C351.65,655.18,384,748.92,466,800.4q81.06,59,169.47,59.17h33q99.46,0,197.91-80.4c11.55-9.44,22-23.42,22-23.42Z"/><path class="cls-2" d="M951.8,593.8c-24.22-11.93-59.24,9.63-78.22,48.16s-14.74,79.44,9.48,91.37,59.24-9.63,78.22-48.16S976,605.73,951.8,593.8ZM901.68,695.54c-11.1-5.47-13-24.22-4.35-41.87s24.75-27.55,35.85-22.08,13.05,24.22,4.35,41.88S912.78,701,901.68,695.54Z"/><path class="cls-2" d="M867.82,765.76c-7.76-22.81-43.47-31.31-79.77-19s-59.43,40.83-51.68,63.65,43.46,31.31,79.76,19S875.57,788.58,867.82,765.76ZM772,798.34c-3.55-10.46,7-23.52,23.69-29.17s33-1.77,36.56,8.69-7.05,23.52-23.69,29.17S775.52,808.79,772,798.34Z"/><path class="cls-2" d="M707.72,832.53c.14-20.93-26.75-38.08-60.07-38.3s-60.42,16.58-60.56,37.51,26.75,38.09,60.07,38.31S707.58,853.47,707.72,832.53Zm-88-.57c.06-9.6,12.49-17.3,27.76-17.2s27.59,8,27.53,17.56-12.49,17.3-27.76,17.2S619.7,841.55,619.76,832Z"/><path class="cls-2" d="M558.84,823.37c6.23-14.56-7.5-34.41-30.67-44.33s-47-6.16-53.25,8.41,7.5,34.41,30.67,44.33S552.6,837.94,558.84,823.37Zm-61.19-26.19c2.86-6.68,13.78-8.4,24.4-3.86S539,807,536.11,813.64s-13.78,8.41-24.41,3.86S494.79,803.85,497.65,797.18Z"/><path class="cls-2" d="M449.93,775.37c8.76-7.54,6.14-24.94-5.85-38.87s-28.81-19.12-37.57-11.58-6.13,24.94,5.86,38.87S441.17,782.9,449.93,775.37Zm-31.66-36.79c4-3.45,11.72-1.08,17.22,5.31s6.69,14.36,2.68,17.81-11.72,1.08-17.21-5.3S414.26,742,418.27,738.58Z"/><path class="cls-2" d="M390,707.46c7.39-1.75,11.12-12.7,8.34-24.45s-11-19.87-18.42-18.12-11.12,12.7-8.34,24.45S382.56,709.21,390,707.46Zm-7.35-31c3.38-.8,7.16,2.92,8.44,8.3s-.44,10.41-3.82,11.21-7.17-2.91-8.44-8.3S379.21,677.22,382.6,676.42Z"/><path class="cls-2" d="M372,645.5c5.21,1.06,10.79-4.79,12.48-13.06s-1.16-15.85-6.37-16.91-10.78,4.79-12.47,13.06S366.77,644.44,372,645.5Zm4.46-21.85c2.38.48,3.69,4,2.92,7.75s-3.34,6.47-5.72,6-3.69-4-2.92-7.74S374,623.16,376.43,623.65Z"/><path class="cls-2" d="M929.17,411.94c-28.18,4.79-44.85,45-37.23,89.85s36.65,77.3,64.83,72.51,44.85-45,37.22-89.85S957.35,407.15,929.17,411.94Zm20.12,118.39c-12.91,2.19-26.21-12.69-29.71-33.23s4.15-39,17.06-41.19,26.22,12.68,29.72,33.23S962.21,528.13,949.29,530.33Z"/><path class="cls-2" d="M762.92,256.2c-25.45,24.43-14.58,77.05,24.29,117.55s91,53.51,116.46,29.08,14.58-77.06-24.29-117.55S788.37,231.76,762.92,256.2ZM865.55,363.12c-11.66,11.19-35.56,5.22-53.37-13.33s-22.8-42.68-11.14-53.88,35.56-5.23,53.38,13.33S877.22,351.92,865.55,363.12Z"/></svg>